<svg width="420" height="300" viewBox="0 0 420 300" fill="none" xmlns="http://www.w3.org/2000/svg">
<path d="M125 200C90 200 60 170 60 135C60 100 90 70 125 70C136 70 146 73 155 78C170 45 203 20 240 20C288 20 326 58 326 106C326 107 326 108 326 110C353 115 375 139 375 168C375 201 349 227 316 227H135C128 227 122 226 116 224C100 217 90 204 90 190C90 182 93 174 99 168C105 162 114 159 123 159C124 159 124 159 125 160V200Z" stroke="#007AFF" stroke-width="3" stroke-linecap="round" stroke-linejoin="round"/>
</svg>
